<svg width="8" height="8" viewBox="0 0 8 8" fill="none" xmlns="http://www.w3.org/2000/svg">
<path d="M0 1C0 0.447716 0.447715 0 1 0H4.87965C5.43194 0 5.87965 0.447715 5.87965 1V2.12033V4.87965C5.87965 5.43194 5.43194 5.87966 4.87965 5.87966H2.12035H1C0.447715 5.87966 0 5.43194 0 4.87966V1Z" fill="#FFCC4A"/>
<path d="M8 7.00002V3.12036C8 2.56808 7.55229 2.12036 7 2.12036H6.37965V4.87968C6.37965 5.70811 5.70808 6.37968 4.87965 6.37968H2.12035V7.00002C2.12035 7.5523 2.56806 8.00002 3.12035 8.00002H7C7.55229 8.00002 8 7.5523 8 7.00002Z" fill="#FFCC4A"/>
</svg>